<?xml version="1.0" encoding="UTF-8"?>
<svg version="1.1" xmlns="http://www.w3.org/2000/svg" width="1254" height="1254">
<path d="M0 0 C413.82 0 827.64 0 1254 0 C1254 413.82 1254 827.64 1254 1254 C840.18 1254 426.36 1254 0 1254 C0 840.18 0 426.36 0 0 Z " fill="#010A1D" transform="translate(0,0)"/>
<path d="M0 0 C0.75667969 -0.02835938 1.51335937 -0.05671875 2.29296875 -0.0859375 C14.92935688 -0.12798871 26.33172918 7.12242281 37.125 13 C38.45022996 13.71458136 39.77567306 14.42876757 41.10131836 15.14257812 C50.75984466 20.35766716 60.32747716 25.72810508 69.86328125 31.1640625 C76.54118511 34.96338248 83.2690774 38.67082538 90 42.375 C92.47140982 43.73557601 94.94275528 45.09626889 97.4140625 46.45703125 C98.0260701 46.79397507 98.6380777 47.13091888 99.26863098 47.47807312 C108.9975865 52.83670026 118.70051414 58.24234039 128.40722656 63.64111328 C134.0204614 66.76258349 139.6353163 69.8811369 145.25 73 C147.50000768 74.24998618 149.75000768 75.49998618 152 76.75 C153.11375 77.36875 154.2275 77.9875 155.375 78.625 C158.75 80.5 162.125 82.375 165.5 84.25 C166.61439453 84.86907227 167.72878906 85.48814453 168.87695312 86.12597656 C171.12056563 87.37250013 173.3640558 88.61924393 175.60742188 89.86621094 C180.74188819 92.71985244 185.8773165 95.57169475 191.01751709 98.41499329 C204.03299843 105.61467544 217.00515954 112.87286591 229.84008789 120.390625 C231.73193073 121.48950444 233.63623297 122.56394445 235.54296875 123.63671875 C245.46464212 129.4011989 250.8971653 137.50995997 254.10701942 148.4668541 C255.35582914 154.35789066 255.13940472 160.31840725 255.09057617 166.31298828 C255.08972835 167.78242475 255.09020807 169.25186248 255.09190369 170.72129822 C255.09275901 174.68143701 255.07520898 178.64129923 255.05418181 182.60137415 C255.03533718 186.75066353 255.03365847 190.89996032 255.03010559 195.04928589 C255.02080788 202.89365029 254.99622513 210.73788819 254.96605712 218.58219707 C254.93244202 227.518154 254.91600928 236.4541172 254.90097082 245.3901217 C254.86967337 263.76015266 254.81695745 282.13006613 254.75 300.5 C255.66688599 300.7951651 256.58377197 301.0903302 257.52844238 301.3944397 C261.27478042 302.68009189 264.71343693 304.39014496 268.21875 306.2109375 C268.92705963 306.57487106 269.63536926 306.93880463 270.36514282 307.31376648 C272.66251928 308.49621062 274.95637518 309.68529717 277.25 310.875 C278.85005946 311.70116448 280.45015739 312.52725445 282.05029297 313.35327148 C291.22786127 318.10097154 300.34223262 322.94632834 309.3828125 327.95068359 C317.58650718 332.46796653 325.91507546 336.73179465 334.25 341 C346.40324392 347.2265252 358.47357946 353.5713642 370.40869141 360.20947266 C372.69213117 361.46810275 374.98944452 362.69656287 377.29296875 363.91796875 C391.6175368 371.58486824 403.00959431 380.71158801 407.91356659 396.87206554 C410.06116148 404.73152574 410.31096363 412.28600064 410.25793457 420.35945129 C410.26255449 421.91192589 410.26891467 423.4643961 410.27684355 425.01685733 C410.29340953 429.24356256 410.28534925 433.46990257 410.27289867 437.69660842 C410.26379824 442.26988014 410.27784227 446.84309178 410.28881836 451.41635132 C410.30655302 460.35841086 410.30278682 469.30033569 410.2911678 478.24240039 C410.28211662 485.51030721 410.28091674 492.77817641 410.28526306 500.04608727 C410.28587599 501.08235237 410.28648893 502.11861747 410.28712043 503.18628454 C410.28839938 505.29168649 410.28969624 507.39708843 410.2910108 509.50249036 C410.30240105 529.21713374 410.28932584 548.93170257 410.26780933 568.64633372 C410.24992652 585.55519398 410.25305522 602.46394443 410.27148438 619.37280273 C410.29289574 639.02696355 410.30131648 658.6810592 410.28903532 678.33523005 C410.28776116 680.43115055 410.28650368 682.52707105 410.28526306 684.62299156 C410.28464596 685.65413668 410.28402886 686.68528179 410.28339306 687.74767372 C410.27994195 695.00775579 410.28576307 702.26779643 410.29518127 709.52787209 C410.30640499 718.37374882 410.30335277 727.21948358 410.2820583 736.06534407 C410.27155499 740.57690445 410.267414 745.0882282 410.28065491 749.59978676 C410.29259869 753.73185895 410.28598381 757.8634758 410.2647447 761.99550685 C410.2602872 763.48783165 410.26252576 764.98019515 410.27224785 766.47249494 C410.33939542 777.63823257 408.81237808 785.22209903 401.703125 793.89453125 C393.52742102 800.61495992 385.08870345 800.07736613 375.07202148 800.03344727 C373.37777965 800.0405117 371.68354413 800.04925892 369.98931885 800.05955505 C365.40465401 800.08199671 360.82033522 800.07912209 356.23563647 800.07023358 C352.403495 800.06511344 348.57141797 800.07242435 344.73928314 800.07970566 C335.69860834 800.09668711 326.65810241 800.09315538 317.61743164 800.07641602 C308.29801214 800.05948351 298.97906065 800.07534868 289.65969223 800.1076389 C281.6484123 800.13434267 273.63727799 800.14160905 265.62595803 800.13312382 C260.8453606 800.12819848 256.06504494 800.13038937 251.28448296 800.15091133 C246.790371 800.16928173 242.29693234 800.1632934 237.80285645 800.13871193 C236.15614723 800.13370894 234.50938658 800.13718056 232.86271858 800.14986038 C218.89676741 800.24887602 218.89676741 800.24887602 214.4657135 797.46055603 C209.08201928 792.10388783 207.30065765 786.24880237 207.21906459 778.7803399 C207.22854 777.80620088 207.2380154 776.83206186 207.24777794 775.82840347 C207.2392211 774.24363483 207.2392211 774.24363483 207.2304914 772.62685066 C207.21621503 769.08077417 207.2304412 765.53538801 207.24447632 761.98931885 C207.24003391 759.42376062 207.23383248 756.85820494 207.22602141 754.29265475 C207.21184423 748.71174012 207.21243252 743.1309793 207.22271919 737.55005836 C207.23793507 729.25127768 207.23019644 720.9526292 207.21768011 712.65384964 C207.19723248 698.69246945 207.19506168 684.73114294 207.20301437 670.7697525 C207.21077187 656.9437215 207.20941004 643.11773732 207.19618607 629.2917099 C207.19536493 628.43191897 207.19454379 627.57212803 207.19369777 626.68628283 C207.18946631 622.31972956 207.18505054 617.95317651 207.18054982 613.58662352 C207.14886286 582.656545 207.13416132 551.72648042 207.13085938 520.79638672 C207.1306537 518.92608518 207.13044765 517.05578365 207.13024123 515.18548211 C207.13013968 514.25879076 207.13003814 513.3320994 207.12993352 512.37732649 C207.12941868 507.6888272 207.12889457 503.0003279 207.12835693 498.31182861 C207.12819983 496.91722592 207.12819983 496.91722592 207.12803955 495.49444943 C207.12551906 473.89034095 207.11787021 452.28623536 207.10839844 430.68212891 C207.1077957 429.29369252 207.1077957 429.29369252 207.10718079 427.87720691 C207.09796593 406.75260692 207.0863819 385.62800996 207.07012367 364.50341415 C207.06944322 363.61611262 207.06876276 362.72881108 207.06806168 361.81462162 C207.06192069 353.83386945 207.05568463 345.85311737 207.04894479 337.87236568 C207.03212976 317.95328028 207.02124294 298.03422108 207.0248619 278.11512806 C207.02736353 264.23889872 207.02350076 250.36268518 207.01278017 236.48645958 C207.00666791 228.23553529 207.00632804 219.98465502 207.01398034 211.7337318 C207.01909249 205.58493642 207.01394075 199.43619086 207.00471647 193.28740117 C207.00263201 190.79095083 207.00398604 188.29449493 207.00900607 185.79804876 C207.01533351 182.42136021 207.0095308 179.04490921 207.00053978 175.66823196 C207.00533285 174.68472828 207.01012592 173.7012246 207.01506424 172.68791777 C207.01016114 171.79082632 207.00525803 170.89373486 207.00020635 169.96945882 C207.00016543 169.19696092 207.0001245 168.42446302 207.00008234 167.62855609 C206.71223452 165.17856205 206.04114602 163.59385756 204.75 161.5 C202.57897806 159.92662408 202.57897806 159.92662408 199.9375 158.6171875 C198.95346191 158.09487549 197.96942383 157.57256348 196.95556641 157.03442383 C195.36881104 156.21300903 195.36881104 156.21300903 193.75 155.375 C191.54904652 154.21045273 189.348529 153.04508117 187.1484375 151.87890625 C186.05885742 151.30543457 184.96927734 150.73196289 183.84667969 150.14111328 C179.65753477 147.92103822 175.51200533 145.62790123 171.375 143.3125 C169.91797817 142.4999831 168.46094701 141.68748295 167.00390625 140.875 C166.29766113 140.48054687 165.59141602 140.08609375 164.86376953 139.6796875 C161.34971026 137.71850312 157.83086145 135.76595218 154.3125 133.8125 C152.81247645 132.97920905 151.31247746 132.14587391 149.8125 131.3125 C148.61173828 130.64541016 148.61173828 130.64541016 147.38671875 129.96484375 C117.2578125 113.2265625 87.12890625 96.48828125 57 79.75 C55.88447754 79.1302832 54.76895508 78.51056641 53.61962891 77.87207031 C51.38747103 76.63194666 49.15537388 75.39171371 46.92333984 74.15136719 C41.65784929 71.22549548 36.39175149 68.30073335 31.12347412 65.37988281 C28.63863423 64.00214347 26.15414271 62.6237766 23.66967773 61.24536133 C21.91879636 60.27429027 20.16741235 59.30412565 18.41601562 58.33398438 C17.35318359 57.74423828 16.29035156 57.15449219 15.1953125 56.546875 C14.26219238 56.02963867 13.32907227 55.51240234 12.36767578 54.97949219 C10.59763219 53.97907583 8.85338652 52.93181821 7.13598633 51.84350586 C3.62132055 49.86446096 0.61508142 49.73258887 -3.25 50.5 C-7.12788784 52.07114193 -10.69129842 54.10067087 -14.3125 56.1875 C-15.89188354 57.0705481 -15.89188354 57.0705481 -17.50317383 57.97143555 C-20.76159786 59.79805041 -24.00639669 61.647222 -27.25 63.5 C-29.13731461 64.56635506 -31.02530542 65.63151448 -32.9140625 66.6953125 C-35.69501876 68.26330633 -38.47456777 69.83356438 -41.25024414 71.41088867 C-49.04717006 75.84055554 -56.89252931 80.17912906 -64.75 84.5 C-74.41795792 89.81779482 -84.0523779 95.18994126 -93.6484375 100.63671875 C-102.13838641 105.45085179 -110.67157207 110.18542366 -119.20800781 114.91650391 C-126.36740593 118.88816317 -133.5047696 122.89610185 -140.625 126.9375 C-148.64325088 131.48632892 -156.69555828 135.97044417 -164.77114868 140.41641235 C-166.61199251 141.43033557 -168.45199837 142.44576293 -170.29174805 143.46166992 C-175.77845505 146.49046103 -181.26780321 149.51352904 -186.77502441 152.50489807 C-189.66686788 154.07865538 -192.5513682 155.66579885 -195.4375 157.25 C-196.50081543 157.82226318 -197.56413086 158.39452637 -198.65966797 158.98413086 C-199.63178223 159.52046143 -200.60389648 160.05679199 -201.60546875 160.609375 C-202.45778076 161.07311523 -203.31009277 161.53685547 -204.18823242 162.01464844 C-206.55368648 163.71878372 -207.16431502 164.825231 -208.25 167.5 C-208.54596996 169.64751191 -208.54596996 169.64751191 -208.50135702 171.9438107 C-208.50651635 172.83516849 -208.51167568 173.72652627 -208.51699135 174.6448949 C-208.51248412 175.6219812 -208.5079769 176.5990675 -208.50333309 177.60576248 C-208.50643036 178.64970765 -208.50952764 179.69365282 -208.51271877 180.76923269 C-208.52073265 184.29650735 -208.51441817 187.82361469 -208.50828552 191.35089111 C-208.51113798 193.89364473 -208.51487479 196.43639748 -208.51942402 198.97914863 C-208.52734596 204.52270985 -208.52906733 210.06622035 -208.52541161 215.60978508 C-208.5200284 223.85331884 -208.52610768 232.09681588 -208.53470039 240.34034551 C-208.54889017 254.20832571 -208.55421539 268.07629572 -208.55496025 281.94428253 C-208.55613774 300.88365255 -208.57132776 319.82299345 -208.59045542 338.76235291 C-208.59935561 347.58209628 -208.60762476 356.40184024 -208.61577702 365.22158432 C-208.61700364 366.54607368 -208.61700364 366.54607368 -208.61825505 367.8973204 C-208.63760088 388.92259239 -208.65113645 409.94786732 -208.66333008 430.97314453 C-208.66386687 431.89328486 -208.66440366 432.81342518 -208.66495672 433.76144854 C-208.67745204 455.22965719 -208.68823215 476.69786618 -208.69702148 498.16607666 C-208.70009144 505.61250815 -208.70318378 513.05893963 -208.70629883 520.50537109 C-208.70668064 521.42441298 -208.70706246 522.34345487 -208.70745584 523.29034651 C-208.71621763 544.27064992 -208.72737241 565.25094715 -208.74742985 586.23124313 C-208.74869384 587.55377481 -208.74869384 587.55377481 -208.74998338 588.9030243 C-208.75846621 597.70509086 -208.76746113 606.50715677 -208.77717515 615.30922206 C-208.78193681 619.63962721 -208.78655227 623.97003251 -208.79106331 628.30043793 C-208.79195119 629.15271639 -208.79283907 630.00499485 -208.79375386 630.88309993 C-208.8076938 644.60936107 -208.81032465 658.33560245 -208.80838365 672.06186961 C-208.8065899 685.85353175 -208.81522399 699.6451541 -208.83469205 713.43680295 C-208.84591097 721.63355893 -208.84868158 729.83021849 -208.8394957 738.02697752 C-208.83354919 744.14274081 -208.84313503 750.25837489 -208.85881007 756.37412533 C-208.86270449 758.85192176 -208.86149628 761.32973237 -208.85475319 763.80752268 C-208.84632909 767.16882936 -208.85625462 770.52959878 -208.87082577 773.89087296 C-208.86397738 774.85859459 -208.85712899 775.82631623 -208.85007307 776.82336277 C-208.91103189 783.9938789 -209.92149819 789.68128728 -214.625 795.375 C-219.36205153 799.209756 -223.26495507 799.75122058 -229.28926086 799.76742554 C-229.98617592 799.77195665 -230.68309097 799.77648776 -231.40112466 799.78115618 C-233.73013084 799.79378931 -236.05890285 799.79218054 -238.38793945 799.79052734 C-240.06040751 799.79651331 -241.73287281 799.80331901 -243.40533447 799.81088257 C-247.94470176 799.82854359 -252.48399364 799.83323801 -257.02339196 799.83451414 C-259.86093634 799.83593632 -262.69846158 799.84020722 -265.53600121 799.84550858 C-275.4396219 799.86400971 -285.34318877 799.87217915 -295.24682617 799.87060547 C-304.47122569 799.86940428 -313.69539114 799.89050191 -322.91973144 799.9220928 C-330.84516826 799.9482658 -338.77052869 799.95897232 -346.69600838 799.95769465 C-351.42691698 799.95718529 -356.15761758 799.96285424 -360.88848305 799.98405075 C-365.33977207 800.00345021 -369.79065506 800.003546 -374.24195862 799.98901749 C-375.87212913 799.98693035 -377.50232517 799.99162463 -379.13245201 800.0037384 C-388.65272769 800.06988152 -395.78771846 799.92783176 -403.45703125 793.7109375 C-404.25173828 792.80214844 -404.25173828 792.80214844 -405.0625 791.875 C-405.60519531 791.28460937 -406.14789063 790.69421875 -406.70703125 790.0859375 C-411.86692235 781.43822128 -411.68114379 772.01650727 -411.63768005 762.23114014 C-411.64185835 760.6939328 -411.64733858 759.15672855 -411.65399987 757.61952996 C-411.66840852 753.41630297 -411.66422412 749.21327283 -411.65683305 745.01003528 C-411.65209222 740.46864166 -411.66461942 735.92729007 -411.67485046 731.38591003 C-411.69202677 722.49645929 -411.69288077 713.60707926 -411.68763756 704.71761623 C-411.6835919 697.48922965 -411.68504413 690.26086392 -411.69038582 683.03247833 C-411.69113424 682.00266561 -411.69188266 680.97285289 -411.69265376 679.91183372 C-411.69418529 677.81956829 -411.69572364 675.72730287 -411.69726873 673.63503745 C-411.71098994 654.02328445 -411.70555909 634.41157135 -411.69408352 614.79981926 C-411.68415496 596.87496206 -411.69708598 578.95020814 -411.72101771 561.02536687 C-411.74542695 542.60350979 -411.75501188 524.18170078 -411.74836498 505.75982785 C-411.74487638 495.42407049 -411.74708095 485.08839251 -411.76461601 474.7526474 C-411.77936094 465.95257071 -411.77994368 457.15262929 -411.7625451 448.35255519 C-411.75405096 443.86672633 -411.75184653 439.38113887 -411.76719666 434.8953228 C-411.78110158 430.7807248 -411.77620674 426.66657368 -411.75695742 422.55200115 C-411.75321474 421.07157751 -411.75606886 419.59111758 -411.76656907 418.11072645 C-411.86195206 403.62095057 -409.15650005 391.18379576 -400.25 379.5 C-399.55197266 378.56800781 -399.55197266 378.56800781 -398.83984375 377.6171875 C-388.86756303 366.18230561 -371.5330181 359.97535071 -358.25634766 353.17431641 C-350.78013756 349.34277677 -343.35747987 345.43107267 -336 341.375 C-328.30677829 337.13580533 -320.55427106 333.03111201 -312.75 329 C-304.73986942 324.86174085 -296.77928876 320.64963896 -288.875 316.3125 C-281.77158162 312.41707702 -274.6567449 308.54677397 -267.5 304.75 C-266.6951416 304.31921143 -265.8902832 303.88842285 -265.06103516 303.44458008 C-259.48407732 300.5 -259.48407732 300.5 -257.25 300.5 C-257.25276538 299.78015332 -257.25553076 299.06030664 -257.25837994 298.31864643 C-257.32480203 280.75580476 -257.37435923 263.19299523 -257.40543652 245.63005543 C-257.42086697 237.13654363 -257.44188287 228.64311597 -257.47631836 220.1496582 C-257.50633832 212.74171488 -257.52560274 205.33383254 -257.53226548 197.92583007 C-257.53615654 194.00791378 -257.54522008 190.09017186 -257.56719017 186.17231178 C-257.58775506 182.47461206 -257.59379405 178.77715632 -257.58932304 175.07940483 C-257.59052473 173.09589375 -257.60656109 171.11240843 -257.6232605 169.12896729 C-257.57356806 154.51665892 -254.84498636 142.33987891 -244.6328125 131.55859375 C-240.43060378 127.4408998 -235.96887489 124.65135693 -230.8125 121.875 C-229.9150708 121.37701904 -229.0176416 120.87903809 -228.09301758 120.3659668 C-226.16359887 119.29608702 -224.23112454 118.23170233 -222.29589844 117.17236328 C-218.06845994 114.85127049 -213.86616616 112.48620377 -209.66186523 110.12353516 C-206.45802146 108.32402633 -203.25102543 106.53026712 -200.04296875 104.73828125 C-195.44078264 102.16684221 -190.84305151 99.58771203 -186.25 97 C-178.49161941 92.62999438 -170.7193449 88.28488227 -162.94799805 83.93798828 C-156.76124216 80.47474236 -150.58492473 76.9939164 -144.41821289 73.49511719 C-135.16437061 68.24518153 -125.86748761 63.08779449 -116.5144043 58.0168457 C-109.92643026 54.43679497 -103.3925525 50.76899413 -96.875 47.0625 C-87.93576005 41.98143206 -78.92723709 37.04270524 -69.87719727 32.16210938 C-64.00420334 28.99409243 -58.144217 25.80590794 -52.3125 22.5625 C-51.61737305 22.17674805 -50.92224609 21.79099609 -50.20605469 21.39355469 C-45.75380391 18.91562332 -41.32277408 16.40244324 -36.8984375 13.875 C-35.78847412 13.24456787 -34.67851074 12.61413574 -33.53491211 11.96459961 C-31.357441 10.72729544 -29.18355956 9.4836452 -27.01391602 8.23266602 C-18.00256091 3.12341743 -10.4242077 -0.03480537 0 0 Z " fill="#11A3FA" transform="translate(628.25,206.5)"/>
<path d="M0 0 C0.79470703 -0.02449219 1.58941406 -0.04898438 2.40820312 -0.07421875 C8.70917555 -0.10548908 12.2320382 1.50525271 16.82954407 5.96942139 C18.85226454 9.55261064 18.58028767 13.08662259 18.52807617 17.09082031 C18.52873329 18.4084285 18.52873329 18.4084285 18.52940369 19.75265503 C18.52731542 22.65303861 18.50398248 25.55284253 18.48046875 28.453125 C18.47487293 30.46522709 18.47060277 32.47733328 18.46760559 34.48944092 C18.45615571 39.78315533 18.42668716 45.07662248 18.39349365 50.37023926 C18.36279594 55.77283381 18.34910088 61.17546835 18.33398438 66.578125 C18.30181772 77.17719192 18.25061951 87.77607539 18.1875 98.375 C19.47941096 98.37131283 20.77132193 98.36762566 22.10238171 98.36382675 C52.80682284 98.27709466 83.51123077 98.21118765 114.2157651 98.17073868 C117.99939374 98.16573618 121.78302213 98.16055886 125.56665039 98.15527344 C126.31986589 98.1542242 127.07308139 98.15317495 127.84912161 98.15209392 C140.02654867 98.13471419 152.20389979 98.10319 164.38128188 98.06638882 C176.88718715 98.02891152 189.39305279 98.00674984 201.89901191 97.99864602 C209.60867905 97.99317227 217.31813147 97.97591794 225.02773247 97.94333413 C230.95101991 97.91958341 236.87419864 97.91719723 242.79753494 97.92256927 C245.21898656 97.9214727 247.64044663 97.91356785 250.06184959 97.8981781 C268.11302909 97.78911868 282.19080189 98.5051933 296.18359375 111.18359375 C306.71795311 122.08042569 307.33389755 135.45115504 307.36450195 149.7265625 C307.37077604 151.07582775 307.37742366 152.4250913 307.38441467 153.77435303 C307.40533124 158.18289006 307.41579995 162.59142698 307.42578125 167 C307.42983234 168.52256284 307.43394937 170.0451255 307.43813133 171.56768799 C307.45714948 178.71761172 307.47139198 185.86752529 307.4797433 193.01746941 C307.48952723 201.25594388 307.51589081 209.49415052 307.55624419 217.73253059 C307.58642135 224.1131977 307.60121336 230.493788 307.60452431 236.87452507 C307.60687135 240.68040779 307.61578768 244.48600323 307.64098549 248.29180908 C307.66430212 251.87064613 307.66848542 255.44900731 307.65822411 259.0279007 C307.65749464 260.96002789 307.67655646 262.89213115 307.69628906 264.82415771 C307.65605822 271.54874694 307.31118593 275.95219856 303.1875 281.375 C299.15204224 284.26216892 294.53384799 283.77985813 289.75 283.8125 C288.90373047 283.84537109 288.05746094 283.87824219 287.18554688 283.91210938 C282.73338025 283.95046007 280.81530832 283.86916187 277.21484375 281.03515625 C263.31824276 262.8008879 273.1875 235.30105639 273.1875 212.375 C189.0375 212.375 104.8875 212.375 18.1875 212.375 C18.1875 233.165 18.1875 253.955 18.1875 275.375 C13.46400728 282.46023909 13.46400728 282.46023909 10.1875 283.375 C7.20251729 283.6700847 4.24780103 283.69953936 1.25 283.6875 C0.45142578 283.70361328 -0.34714844 283.71972656 -1.16992188 283.73632812 C-5.84930593 283.740205 -9.09451374 283.51782816 -12.8125 280.375 C-16.77537582 275.59322643 -16.23479116 270.53474882 -16.20018005 264.63305664 C-16.20556559 263.53792031 -16.21095113 262.44278399 -16.21649987 261.31446171 C-16.23082898 257.63791288 -16.22366333 253.96172158 -16.21655273 250.28515625 C-16.22225365 247.65216786 -16.22921682 245.01918195 -16.23735046 242.38619995 C-16.25454829 235.97293471 -16.25537654 229.5597674 -16.25013756 223.14648509 C-16.24609682 217.93448947 -16.24753826 212.7225228 -16.25288582 207.51052856 C-16.25363424 206.76885282 -16.25438266 206.02717707 -16.25515376 205.2630263 C-16.25668523 203.75634662 -16.25822358 202.24966694 -16.25976873 200.74298728 C-16.27349707 186.61340888 -16.26805351 172.48388586 -16.25658352 158.35430872 C-16.24664845 145.42489648 -16.2595959 132.49562728 -16.28351771 119.56623709 C-16.30789305 106.29178408 -16.31752059 93.01739773 -16.31086498 79.74292278 C-16.30736957 72.2896833 -16.30962612 64.83655388 -16.32711601 57.3833313 C-16.34335324 50.37701166 -16.33868081 43.37097022 -16.31981087 36.36465836 C-16.31611234 33.78988829 -16.31926995 31.21509813 -16.32969666 28.64034653 C-16.34282109 25.13222585 -16.33143393 21.62502383 -16.31370544 18.11694336 C-16.32331045 17.09214402 -16.33291546 16.06734468 -16.34281152 15.01149082 C-16.29747676 10.66743769 -16.2531085 8.10297414 -13.96867466 4.32862854 C-9.20785098 0.01502575 -6.10967721 0.00976767 0 0 Z " fill="#0EAEFA" transform="translate(481.8125,722.625)"/>
<path d="M0 0 C2.95406863 1.17052326 5.83656071 2.35876436 8.66259766 3.8125 C9.34235657 4.16083389 10.02211548 4.50916779 10.72247314 4.86805725 C11.80730988 5.42836891 11.80730988 5.42836891 12.9140625 6 C13.67692566 6.39186996 14.43978882 6.78373993 15.22576904 7.18748474 C17.69339278 8.45598064 20.15925712 9.7278524 22.625 11 C24.32498791 11.8751681 26.02502057 12.75024929 27.72509766 13.62524414 C37.3819285 18.59916628 47.02350701 23.60003657 56.62109375 28.6875 C60.89081692 30.94939549 65.18019569 33.17266582 69.4699707 35.39624023 C73.35885653 37.41602931 77.24011615 39.45011499 81.11914062 41.48876953 C83.04530914 42.49919183 84.97371665 43.50535698 86.90429688 44.50732422 C89.67358309 45.94820369 92.43149976 47.40890218 95.1875 48.875 C96.01886475 49.30288818 96.85022949 49.73077637 97.70678711 50.17163086 C98.47772705 50.58678955 99.24866699 51.00194824 100.04296875 51.4296875 C100.71352295 51.78272949 101.38407715 52.13577148 102.07495117 52.49951172 C105.83610576 55.43116119 107.73615484 58.03827512 108.37203801 62.76615345 C108.52078587 66.35602257 108.53754075 69.92671531 108.5146637 73.51966858 C108.51999064 74.91547344 108.52705719 76.31127256 108.53571075 77.70706075 C108.55434528 81.53770694 108.54803052 85.36796674 108.53755772 89.19862902 C108.53056808 93.33161646 108.54656171 97.46452434 108.55955505 101.5974884 C108.58120322 109.6917306 108.58106626 117.78583225 108.57292951 125.88009388 C108.56663183 132.45743946 108.56776441 139.03474402 108.57420158 145.61208916 C108.57510324 146.5479047 108.57600489 147.48372025 108.57693387 148.44789384 C108.57878505 150.34892199 108.58064761 152.24995013 108.58252143 154.15097826 C108.59910232 171.97935229 108.59037777 189.8076472 108.57353585 207.63601648 C108.55883402 223.95383923 108.57347358 240.27147793 108.60230602 256.58927698 C108.63168279 273.339685 108.64267762 290.09000803 108.63312382 306.84044069 C108.63210125 308.73420265 108.63110664 310.62796462 108.6301403 312.52172661 C108.62942572 313.91942028 108.62942572 313.91942028 108.6286967 315.34535019 C108.62653054 321.91643929 108.63634717 328.48744808 108.65091133 335.05851936 C108.66840729 343.06408154 108.66835659 351.0694089 108.64555968 359.07496173 C108.63439324 363.16072934 108.6313089 367.24608284 108.64986038 371.33183289 C108.66661827 375.07060205 108.66037913 378.8085944 108.63564359 382.54731279 C108.62841976 384.543569 108.64583155 386.53986714 108.66405493 388.53605324 C108.56274322 398.18961192 108.56274322 398.18961192 105.58573818 401.27454281 C100.96509556 404.35788709 97.25311658 404.14798371 91.82446289 404.14526367 C90.39747826 404.15030159 90.39747826 404.15030159 88.94166565 404.15544128 C85.78531604 404.16496902 82.62901936 404.16689528 79.47265625 404.16796875 C77.28551715 404.17117993 75.09837827 404.1745439 72.91123962 404.17805481 C68.32208762 404.18405056 63.73295447 404.18589424 59.14379883 404.18530273 C53.25435282 404.18520106 47.36502723 404.19885707 41.47560978 404.21607494 C36.95726462 404.22717607 32.43894876 404.22922253 27.92059135 404.22869301 C25.74881004 404.22987583 23.57702803 404.23431444 21.40526009 404.24202538 C18.37173067 404.2517877 15.33846501 404.24896215 12.30493164 404.24291992 C11.40248718 404.24853943 10.50004272 404.25415894 9.57025146 404.25994873 C8.74443069 404.25575424 7.91860992 404.25155975 7.06776428 404.24723816 C6.3504416 404.24778293 5.63311892 404.24832769 4.89405918 404.24888897 C3 404 3 404 0 402 C-0.37259549 399.17396724 -0.37259549 399.17396724 -0.36914349 395.47572136 C-0.37260502 394.79468745 -0.37606655 394.11365354 -0.37963298 393.41198224 C-0.38763679 391.10711109 -0.37406362 388.80285616 -0.36076355 386.49801636 C-0.36207056 384.838119 -0.36469505 383.17822223 -0.36853105 381.51832879 C-0.3752685 376.93933634 -0.36319879 372.3605527 -0.34819686 367.78158689 C-0.33528751 362.85042383 -0.33962233 357.91927334 -0.34190369 352.98809814 C-0.34347966 344.43862983 -0.33403665 335.88922999 -0.31719017 327.3397789 C-0.29284856 314.97859281 -0.28499987 302.61743997 -0.2812262 290.25623251 C-0.2746541 270.20286669 -0.2546724 250.14953739 -0.22631836 230.09619141 C-0.19879739 210.61181827 -0.17755422 191.12745504 -0.16479492 171.64306641 C-0.16400675 170.44281963 -0.16321858 169.24257286 -0.16240653 168.00595497 C-0.15849152 161.98489965 -0.15470037 155.96384427 -0.15097082 149.94278884 C-0.1198513 99.96183397 -0.0669949 49.98091876 0 0 Z " fill="#020B1E" transform="translate(883,560)"/>
<path d="M0 0 C0.04573335 51.05098178 0.08099676 102.1019615 0.10213066 153.15295973 C0.10463221 159.17391329 0.10722084 165.19486681 0.10986328 171.21582031 C0.1103879 172.41453222 0.11091252 173.61324412 0.11145304 174.84828062 C0.12016621 194.28208101 0.13594118 213.71586962 0.15430559 233.14966302 C0.17297932 253.07631061 0.18411136 273.00295201 0.18817699 292.92960799 C0.19092731 305.23489945 0.19962773 317.54015763 0.21583293 329.84543885 C0.22636865 338.27265748 0.22960841 346.69985878 0.22700275 355.12708353 C0.22571612 359.99609483 0.2277496 364.86504779 0.23841095 369.73404884 C0.24808643 374.18506858 0.24867238 378.6359903 0.24179779 383.08701439 C0.24094714 384.70346117 0.24353237 386.31991386 0.24976636 387.93634884 C0.25770847 390.121468 0.25351833 392.30622599 0.24609566 394.49133873 C0.24723482 396.3174138 0.24723482 396.3174138 0.24839699 398.18037927 C0 401 0 401 -2 403 C-5.10737851 403.2095668 -8.1263152 403.29362192 -11.2355957 403.29052734 C-12.19345978 403.29724457 -13.15132385 403.30396179 -14.13821411 403.31088257 C-17.31745536 403.32994248 -20.49648635 403.33379101 -23.67578125 403.3359375 C-25.88055001 403.34236066 -28.0853179 403.34908865 -30.29008484 403.35610962 C-34.91793799 403.36810295 -39.54571638 403.37178841 -44.17358398 403.37060547 C-50.10557902 403.37040235 -56.03709459 403.39768876 -61.96897602 403.43214989 C-66.52516381 403.45438343 -71.08123566 403.45844407 -75.63747215 403.45738602 C-77.82435951 403.45974793 -80.01124979 403.46860449 -82.19808388 403.48405075 C-85.25780422 403.50363544 -88.31648378 403.49790155 -91.3762207 403.48583984 C-92.28082535 403.49707886 -93.18542999 403.50831787 -94.1174469 403.51989746 C-98.27834742 403.47819333 -100.43898887 403.35173933 -104.03898621 401.09463501 C-107.12160178 397.80197357 -107.12648998 395.9128376 -107.13422108 391.49199295 C-107.13867892 390.31432334 -107.14313676 389.13665373 -107.14772969 387.92329717 C-107.14754533 386.61807504 -107.14736097 385.31285292 -107.14717102 383.96807861 C-107.15046877 382.57644509 -107.15419414 381.18481252 -107.1583125 379.79318118 C-107.16835082 375.95555017 -107.17205223 372.1179348 -107.17470181 368.28029251 C-107.17859945 364.14656151 -107.18817815 360.01284295 -107.19691467 355.87911987 C-107.21669442 345.88948142 -107.22674721 335.89984194 -107.23564246 325.91018879 C-107.2400229 321.2089113 -107.24539034 316.50763494 -107.25063133 311.80635834 C-107.26764513 296.18338378 -107.28214007 280.56040993 -107.28938007 264.93742752 C-107.29129005 260.88146209 -107.29321037 256.82549666 -107.29516602 252.76953125 C-107.29564976 251.76140832 -107.2961335 250.7532854 -107.2966319 249.71461329 C-107.30493502 233.37784644 -107.33027602 217.04115275 -107.36274669 200.70441785 C-107.39579308 183.94172013 -107.41382664 167.17905962 -107.41702431 150.41632915 C-107.41919166 141.00066389 -107.42797307 131.58510531 -107.45348549 122.16947174 C-107.47515946 114.15180977 -107.48325924 106.13428038 -107.47351871 98.11659244 C-107.46896437 94.02469315 -107.47092565 89.93306759 -107.49028015 85.8412056 C-107.50784428 82.09555873 -107.50696959 78.35038666 -107.49138286 74.60473523 C-107.48786546 72.60702769 -107.50408337 70.60931557 -107.52098733 68.61167645 C-107.44278491 57.78385853 -107.44278491 57.78385853 -103 53 C-101.23022461 51.62304688 -101.23022461 51.62304688 -99.40234375 50.71875 C-98.69746826 50.3592627 -97.99259277 49.99977539 -97.26635742 49.62939453 C-96.49783447 49.25669434 -95.72931152 48.88399414 -94.9375 48.5 C-93.22386163 47.63300362 -91.51032602 46.76580409 -89.796875 45.8984375 C-88.86810547 45.4353418 -87.93933594 44.97224609 -86.98242188 44.49511719 C-81.52336723 41.75843983 -76.10826127 38.93654719 -70.6875 36.125 C-69.52742432 35.52534424 -68.36734863 34.92568848 -67.17211914 34.30786133 C-60.18894178 30.68924816 -53.26101941 26.98726947 -46.375 23.1875 C-37.49492378 18.29579627 -28.52733968 13.58168558 -19.52227783 8.92520142 C-18.01241785 8.14431557 -16.50325666 7.36207705 -14.99481201 6.57846069 C-12.87897044 5.48023258 -10.76030875 4.38766512 -8.640625 3.296875 C-7.6781636 2.79626305 -7.6781636 2.79626305 -6.69625854 2.28553772 C-2.22956817 0 -2.22956817 0 0 0 Z " fill="#010A1D" transform="translate(371,561)"/>
<path d="M0 0 C30.94799542 -0.08820572 61.89586941 -0.16205311 92.84395131 -0.20426132 C96.49883235 -0.20926406 100.15371311 -0.21444136 103.80859375 -0.21972656 C104.90001103 -0.22130043 104.90001103 -0.22130043 106.01347715 -0.22290608 C117.79012536 -0.24030456 129.56669535 -0.27183916 141.34329718 -0.30861118 C153.42994357 -0.34603615 165.51654903 -0.36823913 177.60325098 -0.37635398 C184.391026 -0.38134678 191.17863801 -0.39334101 197.96635437 -0.42292023 C204.35536441 -0.45007204 210.74412408 -0.4584453 217.13318634 -0.45243073 C219.47772329 -0.45353105 221.82226862 -0.46148603 224.16675568 -0.4768219 C227.36973757 -0.49674548 230.57177621 -0.49192981 233.77478027 -0.48101807 C234.70086893 -0.49266943 235.62695758 -0.5043208 236.58110952 -0.51632524 C242.33493708 -0.46340247 247.38950955 0.31275853 252 4 C259.3923649 16.32060817 255 32.63182529 255 47 C170.85 47 86.7 47 0 47 C0 31.49 0 15.98 0 0 Z " fill="#010C1F" transform="translate(500,854)"/>
<path d="M0 0 C1.09518951 -0.01606293 2.19037903 -0.03212585 3.3187561 -0.04867554 C8.34465961 -0.09314126 13.37042998 -0.13421406 18.39648438 -0.15722656 C21.04436039 -0.1737616 23.69219223 -0.20101868 26.33984375 -0.23925781 C30.15957786 -0.29414591 33.97826393 -0.31592313 37.79833984 -0.33056641 C39.56439072 -0.36457047 39.56439072 -0.36457047 41.36611938 -0.39926147 C48.47827651 -0.38106754 53.29572243 0.46659633 58.75927734 5.19287109 C63.12804575 9.7856789 63.86162085 13.27387297 63.96801758 19.46118164 C63.9873082 20.5129509 64.00659882 21.56472015 64.026474 22.64836121 C64.08447779 27.45604777 64.13349248 32.26358961 64.16430664 37.0715332 C64.18587864 39.60194553 64.21997138 42.13228341 64.2668457 44.66235352 C64.33399527 48.32260252 64.3613322 51.98131094 64.38037109 55.64208984 C64.40820175 56.76427414 64.43603241 57.88645844 64.46470642 59.04264832 C64.4451209 66.5784524 62.94899929 71.59019446 57.75927734 77.19287109 C52.95489697 80.26767453 48.55692779 81.31256183 42.91821289 81.33813477 C41.48103157 81.34770454 41.48103157 81.34770454 40.01481628 81.35746765 C38.47100029 81.35913689 38.47100029 81.35913689 36.89599609 81.36083984 C35.8306514 81.36416824 34.7653067 81.36749664 33.66767883 81.3709259 C31.41411775 81.3759868 29.16054918 81.37833449 26.90698242 81.37817383 C23.47025089 81.38035619 20.03384254 81.39850965 16.59716797 81.41748047 C14.40511177 81.42041543 12.21305405 81.42239954 10.02099609 81.42333984 C8.99785812 81.43052536 7.97472015 81.43771088 6.920578 81.44511414 C-0.88630721 81.42029039 -7.43644524 80.99714851 -13.24072266 75.19287109 C-17.94168153 68.84864225 -17.82544125 63.19626032 -17.77197266 55.47021484 C-17.77579956 54.251371 -17.77962646 53.03252716 -17.78356934 51.77674866 C-17.78628425 49.20735851 -17.77895273 46.63794053 -17.76220703 44.06860352 C-17.74077517 40.1399979 -17.76203493 36.21321731 -17.78759766 32.28466797 C-17.78495467 29.7840129 -17.7798303 27.28335896 -17.77197266 24.78271484 C-17.78006958 23.6107103 -17.7881665 22.43870575 -17.79650879 21.23118591 C-17.7101756 13.71223383 -16.95592983 9.93474243 -11.60791016 4.54833984 C-7.36100369 1.22419055 -5.34749043 0.07117206 0 0 Z " fill="#11A2FB" transform="translate(537.24072265625,547.80712890625)"/>
<path d="M0 0 C1.07509323 -0.01606293 2.15018646 -0.03212585 3.25785828 -0.04867554 C8.17954832 -0.09323192 13.10110448 -0.13419966 18.02294922 -0.15722656 C20.61548854 -0.17377158 23.20798253 -0.20104193 25.80029297 -0.23925781 C29.54394124 -0.29414652 33.28652056 -0.31592151 37.03051758 -0.33056641 C38.18287399 -0.35323578 39.33523041 -0.37590515 40.52250671 -0.39926147 C47.58725245 -0.38080366 52.30291417 0.5342269 57.73754883 5.19287109 C58.26128586 5.63950104 58.78502289 6.08613098 59.32463074 6.54629517 C62.4566453 10.19625889 62.99107397 14.00219584 63.04394531 18.68237305 C63.05993271 19.75731522 63.0759201 20.83225739 63.09239197 21.93977356 C63.09775467 23.09192856 63.10311737 24.24408356 63.10864258 25.43115234 C63.11767105 26.62588669 63.12669952 27.82062103 63.13600159 29.05155945 C63.15049735 31.57739763 63.15938914 34.10327331 63.16308594 36.62915039 C63.17497397 40.48111692 63.22416362 44.33147721 63.2746582 48.18310547 C63.28412378 50.64077997 63.29135817 53.09846428 63.29614258 55.55615234 C63.3156749 56.70223465 63.33520721 57.84831696 63.35533142 59.02912903 C63.3166851 65.92447219 62.52749853 70.99276399 57.73754883 76.19287109 C52.76579712 80.00900163 47.88052505 81.30050371 41.72875977 81.36987305 C40.23635773 81.3891259 40.23635773 81.3891259 38.71380615 81.4087677 C37.64398499 81.41615463 36.57416382 81.42354156 35.47192383 81.43115234 C34.36455872 81.43922409 33.2571936 81.44729584 32.11627197 81.45561218 C29.77276162 81.4694372 27.42923127 81.48016642 25.08569336 81.48803711 C21.51482679 81.50523968 17.94488866 81.54914042 14.37426758 81.59326172 C12.09432645 81.60339012 9.81437747 81.61190576 7.53442383 81.61865234 C6.47269958 81.63616043 5.41097534 81.65366852 4.31707764 81.67170715 C-2.79602789 81.65105308 -8.37408942 80.63499676 -13.81768799 75.81611633 C-19.58977024 69.5597139 -18.44759068 61.20603197 -18.50073242 53.22412109 C-18.50880417 52.07045044 -18.51687592 50.91677979 -18.52519226 49.72814941 C-18.53899108 47.29404181 -18.54973192 44.8599152 -18.55761719 42.42578125 C-18.56917344 39.93711681 -18.58968205 37.44847785 -18.61914062 34.95996094 C-18.66173824 31.36034333 -18.6779724 27.76145918 -18.68823242 24.16162109 C-18.70574051 23.05210083 -18.7232486 21.94258057 -18.74128723 20.79943848 C-18.72060213 13.43710959 -17.83380532 9.86900825 -12.66479492 4.54833984 C-8.32323933 1.08667285 -5.47373084 0.07439089 0 0 Z " fill="#10A6FA" transform="translate(538.262451171875,414.80712890625)"/>
<path d="M0 0 C1.19190445 -0.0038269 2.3838089 -0.00765381 3.61183167 -0.01159668 C6.12575121 -0.01431168 8.63969921 -0.00697952 11.15356445 0.00976562 C14.98778734 0.03116006 18.82013234 0.00995742 22.65429688 -0.015625 C25.1028687 -0.01298128 27.55143935 -0.0078554 30 0 C31.1398082 -0.00809692 32.27961639 -0.01619385 33.45396423 -0.02453613 C40.96589046 0.06333045 46.37216472 0.90710153 52.13973999 5.89073181 C56.91481562 11.28757247 56.26997518 17.85638233 56.1953125 24.69140625 C56.19772446 25.95464218 56.20013641 27.21787811 56.20262146 28.51939392 C56.20164399 31.18380948 56.19089341 33.84596092 56.16333008 36.51000977 C56.12921199 39.91193955 56.13528646 43.31236157 56.15399265 46.71436405 C56.16714312 49.97763158 56.14883702 53.24067117 56.1328125 56.50390625 C56.1402523 58.32753441 56.1402523 58.32753441 56.14784241 60.18800354 C56.05895447 66.57637504 55.94676106 70.71745678 51.56640625 75.53125 C46.9495188 79.79299226 42.73845243 81.77260394 36.4440918 81.8059082 C35.44923264 81.81544022 34.45437347 81.82497223 33.42936707 81.83479309 C31.83237724 81.83342598 31.83237724 81.83342598 30.203125 81.83203125 C29.09717484 81.83631638 27.99122467 81.8406015 26.85176086 81.84501648 C24.51421797 81.8507533 22.17665723 81.85126482 19.83911133 81.84692383 C16.27719343 81.84377062 12.71611175 81.86720872 9.15429688 81.89257812 C6.87890729 81.89485196 4.60351549 81.89555422 2.328125 81.89453125 C1.26953781 81.903741 0.21095062 81.91295074 -0.87971497 81.92243958 C-7.763476 81.87974632 -13.98798159 81.40804194 -19.4921875 76.8125 C-19.94722656 76.2246875 -20.40226563 75.636875 -20.87109375 75.03125 C-21.34417969 74.4434375 -21.81726563 73.855625 -22.3046875 73.25 C-24.49642565 69.91309762 -24.57583765 66.94626076 -24.62646484 63.06933594 C-24.64252777 61.95097351 -24.6585907 60.83261108 -24.67514038 59.68035889 C-24.71964834 54.5657338 -24.7610918 49.45119659 -24.78369141 44.33642578 C-24.79701334 41.63979031 -24.82483532 38.94391471 -24.86572266 36.24755859 C-24.92052541 32.35751599 -24.94237226 28.46850181 -24.95703125 24.578125 C-24.97970062 23.37685974 -25.00237 22.17559448 -25.02572632 20.93792725 C-25.01091838 15.06174003 -24.97268692 10.43560003 -20.94474792 5.89471436 C-14.34470474 -0.06028599 -8.61898128 -0.06111863 0 0 Z " fill="#11A2FB" transform="translate(677.43359375,547.46875)"/>
<path d="M0 0 C1.19190445 -0.0038269 2.3838089 -0.00765381 3.61183167 -0.01159668 C6.12575121 -0.01431168 8.63969921 -0.00697952 11.15356445 0.00976562 C14.98778734 0.03116006 18.82013234 0.00995742 22.65429688 -0.015625 C25.1028687 -0.01298128 27.55143935 -0.0078554 30 0 C31.1398082 -0.00809692 32.27961639 -0.01619385 33.45396423 -0.02453613 C40.96589046 0.06333045 46.37216472 0.90710153 52.13973999 5.89073181 C56.91481562 11.28757247 56.26997518 17.85638233 56.1953125 24.69140625 C56.19772446 25.95464218 56.20013641 27.21787811 56.20262146 28.51939392 C56.20164399 31.18380948 56.19089341 33.84596092 56.16333008 36.51000977 C56.12921199 39.91193955 56.13528646 43.31236157 56.15399265 46.71436405 C56.16714312 49.97763158 56.14883702 53.24067117 56.1328125 56.50390625 C56.1402523 58.32753441 56.1402523 58.32753441 56.14784241 60.18800354 C56.03429131 68.34891528 55.14041397 72.05383708 49.25390625 77.78125 C42.6819988 82.0606316 35.78884389 81.83871757 28.19140625 81.83203125 C26.5664624 81.83845894 26.5664624 81.83845894 24.90869141 81.84501648 C22.62598365 81.85074093 20.34325766 81.851274 18.06054688 81.84692383 C14.57780773 81.84376036 11.09591578 81.86725971 7.61328125 81.89257812 C5.38932398 81.89485102 3.16536444 81.89555466 0.94140625 81.89453125 C-0.09419434 81.903741 -1.12979492 81.91295074 -2.19677734 81.92243958 C-8.86133077 81.87998997 -14.18842043 81.37562502 -19.39453125 76.8125 C-19.86117187 76.2246875 -20.3278125 75.636875 -20.80859375 75.03125 C-21.53175781 74.14953125 -21.53175781 74.14953125 -22.26953125 73.25 C-24.51589084 69.93322745 -24.57574814 66.9531157 -24.62646484 63.06933594 C-24.64252777 61.95097351 -24.6585907 60.83261108 -24.67514038 59.68035889 C-24.71964834 54.5657338 -24.7610918 49.45119659 -24.78369141 44.33642578 C-24.79701334 41.63979031 -24.82483532 38.94391471 -24.86572266 36.24755859 C-24.92052541 32.35751599 -24.94237226 28.46850181 -24.95703125 24.578125 C-24.97970062 23.37685974 -25.00237 22.17559448 -25.02572632 20.93792725 C-25.01091838 15.06174003 -24.97268692 10.43560003 -20.94474792 5.89471436 C-14.34470474 -0.06028599 -8.61898128 -0.06111863 0 0 Z " fill="#0FA8FB" transform="translate(677.43359375,414.46875)"/>
<path d="M0 0 C1.18868683 -0.01283524 2.37737366 -0.02567047 3.6020813 -0.03889465 C5.52550858 -0.04997505 5.52550858 -0.04997505 7.48779297 -0.0612793 C8.14462948 -0.06535482 8.80146599 -0.06943035 9.47820663 -0.07362938 C12.95861237 -0.09445836 16.43897911 -0.10877065 19.91943359 -0.11816406 C23.49013225 -0.12918942 27.06020102 -0.16355227 30.63067818 -0.20333576 C33.39674933 -0.2296598 36.16267436 -0.23786998 38.92885971 -0.24144554 C40.87739745 -0.24860336 42.82583465 -0.27497709 44.77420044 -0.30183411 C53.66539609 -0.28029403 61.1992919 1.06410703 68.47998047 6.42700195 C74.01580383 12.22643595 75.58632407 17.64652931 75.55419922 25.6027832 C75.51746094 27.06264648 75.51746094 27.06264648 75.47998047 28.55200195 C75.47869141 29.54844727 75.47740234 30.54489258 75.47607422 31.5715332 C75.38663826 38.89534416 75.38663826 38.89534416 73.10498047 41.17700195 C70.07780871 41.38119415 67.1417483 41.46013121 64.11303711 41.45166016 C63.18122116 41.45677109 62.24940521 41.46188202 61.28935242 41.46714783 C58.19788251 41.48108953 55.10663439 41.48008361 52.01513672 41.4777832 C49.87283749 41.48166765 47.73053903 41.48600179 45.58824158 41.49076843 C41.09322618 41.49824052 36.5982893 41.49793223 32.10327148 41.49267578 C26.33481876 41.48688018 20.56668702 41.50380969 14.79828739 41.52702045 C10.37257499 41.54173205 5.94694033 41.542633 1.52120781 41.53951073 C-0.60591836 41.54002525 -2.73304873 41.54528734 -4.86015129 41.55532265 C-7.83154195 41.56761972 -10.80230155 41.56093582 -13.77368164 41.54931641 C-15.09929611 41.56078201 -15.09929611 41.56078201 -16.45169067 41.57247925 C-17.26068314 41.56546494 -18.0696756 41.55845062 -18.90318298 41.55122375 C-19.95704398 41.55147537 -19.95704398 41.55147537 -21.03219509 41.55173206 C-23.51327191 41.05263286 -24.39226754 40.18894033 -25.89501953 38.17700195 C-26.19715706 35.37482445 -26.32229808 32.84920488 -26.27001953 30.05200195 C-26.25986816 29.2851709 -26.2497168 28.51833984 -26.23925781 27.72827148 C-26.00860818 19.30151409 -24.43754874 12.96669123 -18.57470703 6.6809082 C-12.98371212 1.67501741 -7.36074723 0.06936603 0 0 Z " fill="#0EA9FA" transform="translate(533.89501953125,771.822998046875)"/>
<path d="M0 0 C1.32 0.66 2.64 1.32 4 2 C3.0256645 2.44101673 2.051329 2.88203346 1.04746819 3.33641434 C-1.12256924 4.80467336 -1.88427409 5.56627921 -2.56706977 8.1252799 C-2.77657591 10.96985279 -2.79721496 13.76509644 -2.75949097 16.61737061 C-2.76870107 17.71109679 -2.77791117 18.80482296 -2.78740036 19.93169236 C-2.81106129 23.60956761 -2.79183827 27.28598226 -2.77294922 30.96386719 C-2.78111597 33.59497485 -2.79191602 36.22607547 -2.80516052 38.85716248 C-2.82953997 44.52828405 -2.83199106 50.19907586 -2.81957626 55.87023163 C-2.80165834 64.06971076 -2.81676787 72.26886689 -2.83995558 80.46832064 C-2.87667748 93.77106062 -2.88666452 107.07368116 -2.87988281 120.37646484 C-2.87335193 133.29935773 -2.87938478 146.22214393 -2.90234375 159.14501953 C-2.9037544 159.94149646 -2.90516506 160.73797338 -2.90661846 161.55858597 C-2.91377286 165.55425085 -2.92117457 169.54991523 -2.92869925 173.54557943 C-2.99081052 206.69706919 -3.00955236 239.84845224 -3 273 C-3.33 273 -3.66 273 -4 273 C-4.09152419 238.94351443 -4.16202277 204.88705942 -4.20426132 170.83047821 C-4.20926424 166.8112203 -4.21444152 162.79196263 -4.21972656 158.77270508 C-4.2207758 157.97253187 -4.22182505 157.17235866 -4.22290608 156.34793779 C-4.24031876 143.38589244 -4.27186118 130.42391793 -4.30861118 117.46191464 C-4.34599664 104.165039 -4.36823077 90.8682005 -4.37635398 77.57127446 C-4.38184674 69.36409708 -4.39920476 61.15711994 -4.43166587 52.95000418 C-4.45278422 47.32464808 -4.45920615 41.69939572 -4.45400551 36.07400284 C-4.45143949 32.82672426 -4.45759155 29.57987062 -4.4768219 26.33263779 C-4.49664638 22.81333942 -4.49196588 19.29490629 -4.48101807 15.77558899 C-4.49849512 14.23327409 -4.49849512 14.23327409 -4.51632524 12.6598013 C-4.47815601 8.13795394 -4.45483289 5.71101243 -1.96993637 1.82652569 C-1.31985737 1.22377221 -0.66977837 0.62101873 0 0 Z " fill="#10A9E1" transform="translate(470,725)"/>
<path d="M0 0 C0.99 0.33 1.98 0.66 3 1 C0.25765358 2.52352579 -2.4846947 4.04704823 -5.22705078 5.57055664 C-7.6512448 6.91732644 -10.07539299 8.26417868 -12.49951172 9.61108398 C-18.64086769 13.02329656 -24.78265507 16.43472522 -30.92578125 19.84375 C-45.97034011 28.19408021 -60.99368966 36.58115565 -76 45 C-76.33 44.34 -76.66 43.68 -77 43 C-60.9453125 34.08072917 -44.890625 25.16145833 -28.8359375 16.2421875 C-27.84561523 15.69014648 -26.85529297 15.13810547 -25.83496094 14.56933594 C-23.98520897 13.54537748 -22.12929448 12.53245073 -20.26660156 11.53222656 C-19.44901367 11.09104492 -18.63142578 10.64986328 -17.7890625 10.1953125 C-16.72099365 9.62707764 -16.72099365 9.62707764 -15.63134766 9.04736328 C-13.83088894 8.08764968 -13.83088894 8.08764968 -13 6 C-10.8203125 5 -10.8203125 5 -8.125 4 C-5.06202491 2.85696556 -2.7433159 1.82887727 0 0 Z " fill="#0BB0EF" transform="translate(584,277)"/>
<path d="M0 0 C0.33 0 0.66 0 1 0 C1 3.63 1 7.26 1 11 C0.67 11 0.34 11 0 11 C-0.33 27.17 -0.66 43.34 -1 60 C-1.33 60 -1.66 60 -2 60 C-2.05066409 52.09800959 -2.08571846 44.19606098 -2.10986328 36.29394531 C-2.11879903 33.60509625 -2.13272238 30.9163413 -2.15087891 28.22753906 C-2.17510756 24.36520687 -2.18647875 20.50301925 -2.1953125 16.640625 C-2.20563507 15.4363385 -2.21595764 14.232052 -2.22659302 12.99127197 C-2.22674408 11.87041199 -2.22689514 10.749552 -2.22705078 9.59472656 C-2.231492 8.60877502 -2.23593323 7.62282349 -2.24050903 6.60699463 C-1.99323721 3.92669488 -1.36954683 2.29273918 0 0 Z " fill="#0D8EC9" transform="translate(522,556)"/>
<path d="M0 0 C-3.32575522 2.21717015 -4.3360624 2.24543438 -8.20581055 2.22705078 C-9.26668381 2.22689972 -10.32755707 2.22674866 -11.420578 2.22659302 C-12.56440445 2.21627045 -13.7082309 2.20594788 -14.88671875 2.1953125 C-16.05886429 2.1924826 -17.23100983 2.18965271 -18.43867493 2.18673706 C-22.18838643 2.17552753 -25.93786049 2.15042128 -29.6875 2.125 C-32.2272101 2.11497121 -34.76692393 2.10584519 -37.30664062 2.09765625 C-43.53784165 2.07558567 -49.76890386 2.04210039 -56 2 C-56 1.67 -56 1.34 -56 1 C-55.40753479 0.98969254 -54.81506958 0.97938507 -54.20465088 0.96876526 C-48.04029494 0.86061542 -41.87608265 0.74602421 -35.71191406 0.62768555 C-33.41116338 0.58436394 -31.11038112 0.54268687 -28.80957031 0.50268555 C-25.50315839 0.44491605 -22.196905 0.38124051 -18.890625 0.31640625 C-17.86132874 0.29969376 -16.83203247 0.28298126 -15.77154541 0.26576233 C-14.81085144 0.24581711 -13.85015747 0.22587189 -12.86035156 0.20532227 C-11.59460297 0.18200584 -11.59460297 0.18200584 -10.30328369 0.15821838 C-1.40864013 -0.45277718 -1.40864013 -0.45277718 0 0 Z " fill="#021B32" transform="translate(725,495)"/>
<path d="M0 0 C1.31225809 3.93677426 0.3393954 5.7794262 -0.9375 9.6875 C-1.31777344 10.86699219 -1.69804688 12.04648437 -2.08984375 13.26171875 C-2.39019531 14.16535156 -2.69054687 15.06898438 -3 16 C-3.33 16 -3.66 16 -4 16 C-4.33 20.62 -4.66 25.24 -5 30 C-5.33 30 -5.66 30 -6 30 C-6.70241117 7.34073604 -6.70241117 7.34073604 0 0 Z " fill="#0587C6" transform="translate(514,780)"/>
<path d="M0 0 C0.66 0.33 1.32 0.66 2 1 C1 4 1 4 -1.9375 6.25 C-5.52100857 9.06008946 -6.13832524 11.60545871 -7 16 C-7.66 15.34 -8.32 14.68 -9 14 C-8.78277897 9.1125269 -7.32665545 6.51675004 -4 3 C-1.75 1.1875 -1.75 1.1875 0 0 Z " fill="#0E9CE5" transform="translate(662,549)"/>
<path d="M0 0 C-4.95 2.64 -9.9 5.28 -15 8 C-14.67 6.35 -14.34 4.7 -14 3 C-12.68 3 -11.36 3 -10 3 C-9.67 2.34 -9.34 1.68 -9 1 C-3.6407767 -1.21359223 -3.6407767 -1.21359223 0 0 Z " fill="#0FB4F5" transform="translate(603,269)"/>
<path d="M0 0 C0.66 0.33 1.32 0.66 2 1 C0.71107323 3.87529818 -0.49296383 6.05008298 -3 8 C-5.6875 8.6875 -5.6875 8.6875 -8 9 C-7.04270084 7.87411986 -6.08412105 6.7493285 -5.125 5.625 C-4.59132812 4.99851562 -4.05765625 4.37203125 -3.5078125 3.7265625 C-2.38567993 2.44163349 -1.20628025 1.20628025 0 0 Z " fill="#099AE7" transform="translate(235,579)"/>
<path d="M0 0 C-1.5830577 4.2742558 -4.50568404 6.26531794 -8 9 C-8.33 8.01 -8.66 7.02 -9 6 C-7.8803014 4.99406757 -6.7540588 3.9954151 -5.625 3 C-4.68527344 2.1646875 -4.68527344 2.1646875 -3.7265625 1.3125 C-2 0 -2 0 0 0 Z " fill="#099AE5" transform="translate(532,549)"/>
<path d="M0 0 C1.32 0.66 2.64 1.32 4 2 C3.030625 2.515625 2.06125 3.03125 1.0625 3.5625 C-2.35391691 5.76438296 -2.35391691 5.76438296 -2.875 9.75 C-2.91625 10.8225 -2.9575 11.895 -3 13 C-3.33 13 -3.66 13 -4 13 C-4.49230769 5.73846154 -4.49230769 5.73846154 -2 2 C-1.34 1.34 -0.68 0.68 0 0 Z " fill="#0C9AD8" transform="translate(470,725)"/>
<path d="M0 0 C0.66 0.33 1.32 0.66 2 1 C1.360625 2.051875 0.72125 3.10375 0.0625 4.1875 C-1.61754452 7.10828412 -2.58996052 9.6171743 -3 13 C-3.66 12.34 -4.32 11.68 -5 11 C-4.7831713 6.12135417 -3.25135812 3.56600568 0 0 Z " fill="#0B9CDD" transform="translate(658,419)"/>
<path d="M0 0 C0 0.99 0 1.98 0 3 C-1.4096347 3.70180531 -2.82807641 4.38593958 -4.25 5.0625 C-5.03890625 5.44535156 -5.8278125 5.82820313 -6.640625 6.22265625 C-9.25993522 7.08564091 -10.44855176 6.93045933 -13 6 C-11.21118264 4.99491199 -9.41885304 3.99607264 -7.625 3 C-6.62726563 2.443125 -5.62953125 1.88625 -4.6015625 1.3125 C-2 0 -2 0 0 0 Z " fill="#01182A" transform="translate(483,336)"/>
<path d="M0 0 C0 0.66 0 1.32 0 2 C-3.34880626 4.74219867 -6.67076296 6.86153781 -11 7.3125 C-11.66 7.209375 -12.32 7.10625 -13 7 C-4.25 0 -4.25 0 0 0 Z " fill="#0FA2E2" transform="translate(590,222)"/>
<path d="M0 0 C6.435 2.97 6.435 2.97 13 6 C9.23375329 7.25541557 7.62811066 6.37061958 4 5 C4 4.34 4 3.68 4 3 C2.35 2.67 0.7 2.34 -1 2 C-0.67 1.34 -0.34 0.68 0 0 Z " fill="#0FA1EB" transform="translate(983,559)"/>
<path d="M0 0 C4.49797113 1.68673918 8.72886302 3.81673892 13 6 C10 7 10 7 7.51953125 6.00390625 C6.62621094 5.52824219 5.73289062 5.05257813 4.8125 4.5625 C3.91144531 4.08941406 3.01039063 3.61632812 2.08203125 3.12890625 C1.39496094 2.75636719 0.70789063 2.38382812 0 2 C0 1.34 0 0.68 0 0 Z " fill="#0AA7E5" transform="translate(812,302)"/>
<path d="M0 0 C4.12751449 0.60698743 7.3321148 2.03810791 11 4 C10.34 4.66 9.68 5.32 9 6 C6 6 6 6 4.5 4.6875 C4.005 4.130625 3.51 3.57375 3 3 C2.443125 2.443125 1.88625 1.88625 1.3125 1.3125 C0.879375 0.879375 0.44625 0.44625 0 0 Z " fill="#0CABE9" transform="translate(733,259)"/>
<path d="M0 0 C1.98 0 3.96 0 6 0 C6 2.31 6 4.62 6 7 C1.125 2.25 1.125 2.25 0 0 Z " fill="#000002" transform="translate(1248,0)"/>
<path d="M0 0 C0.33 0 0.66 0 1 0 C1 2.31 1 4.62 1 7 C-0.98 7 -2.96 7 -5 7 C-4.34 6.01 -3.68 5.02 -3 4 C-2.34 4 -1.68 4 -1 4 C-0.67 2.68 -0.34 1.36 0 0 Z " fill="#000104" transform="translate(1253,1247)"/>
<path d="M0 0 C0 0.99 0 1.98 0 3 C-2.5 5.1875 -2.5 5.1875 -5 7 C-7 6 -7 6 -8 4 C-5.36 2.68 -2.72 1.36 0 0 Z " fill="#0CA6E7" transform="translate(567,234)"/>
<path d="M0 0 C0.33 0 0.66 0 1 0 C1.37010337 3.3309303 1.27461204 4.62731223 -0.75 7.375 C-3 9 -3 9 -5.25 8.75 C-6.11625 8.37875 -6.11625 8.37875 -7 8 C-6.38125 7.9175 -5.7625 7.835 -5.125 7.75 C-2.85214021 7.19418495 -2.85214021 7.19418495 -1.8125 5.125 C-1.16535941 3.43247845 -0.57301136 1.71903407 0 0 Z " fill="#001F37" transform="translate(788,997)"/>
<path d="M0 0 C-2.27795022 2.27795022 -3.93787293 3.05219877 -7 4 C-9.1640625 3.55078125 -9.1640625 3.55078125 -11 3 C-9.73581754 2.30034557 -8.46334598 1.61565237 -7.1875 0.9375 C-6.47980469 0.55464844 -5.77210938 0.17179688 -5.04296875 -0.22265625 C-3 -1 -3 -1 0 0 Z " fill="#021D34" transform="translate(341,578)"/>
<path d="M0 0 C0.66 0 1.32 0 2 0 C1.88637738 1.4800841 1.75877092 2.95910074 1.625 4.4375 C1.52058594 5.67306641 1.52058594 5.67306641 1.4140625 6.93359375 C1.27742188 7.61550781 1.14078125 8.29742187 1 9 C0.01 9.495 0.01 9.495 -1 10 C-0.67 6.7 -0.34 3.4 0 0 Z " fill="#03172E" transform="translate(371,356)"/>
<path d="M0 0 C0.61875 0.78375 1.2375 1.5675 1.875 2.375 C3.89858661 4.96837647 3.89858661 4.96837647 6 7 C4.02 7 2.04 7 0 7 C0 4.69 0 2.38 0 0 Z " fill="#000102" transform="translate(0,1247)"/>
<path d="M0 0 C3.73487777 0.4979837 5.81237635 0.87491756 9 3 C9 3.66 9 4.32 9 5 C5.22454612 3.90931332 2.52956528 3.0916909 0 0 Z " fill="#0D8FD6" transform="translate(904,570)"/>
<path d="M0 0 C0.66 0.33 1.32 0.66 2 1 C1.67 2.98 1.34 4.96 1 7 C0.01 7.33 -0.98 7.66 -2 8 C-1.125 2.25 -1.125 2.25 0 0 Z " fill="#089BE1" transform="translate(375,350)"/>
<path d="M0 0 C1.98 0 3.96 0 6 0 C4.35830472 2.02054804 2.69088222 4.02043058 1 6 C0.67 6 0.34 6 0 6 C0 4.02 0 2.04 0 0 Z " fill="#000102" transform="translate(0,0)"/>
<path d="M0 0 C0.33 0.66 0.66 1.32 1 2 C1.66 2 2.32 2 3 2 C3.68707555 4.49064888 4 6.37886292 4 9 C0.06153846 5.67692308 0.06153846 5.67692308 -0.25 2.25 C-0.1675 1.5075 -0.085 0.765 0 0 Z " fill="#0FABEE" transform="translate(467,995)"/>
<path d="M0 0 C-1 3 -1 3 -2.8125 4.25 C-5.33943414 5.11637742 -6.52221994 4.88492145 -9 4 C-2.25 0 -2.25 0 0 0 Z " fill="#1296DF" transform="translate(301,544)"/>
<path d="M0 0 C-1 3 -1 3 -2.8125 4.25 C-5.33943414 5.11637742 -6.52221994 4.88492145 -9 4 C-2.25 0 -2.25 0 0 0 Z " fill="#012035" transform="translate(621,259)"/>
<path d="M0 0 C3.02419525 0.58803797 6.01758453 1.22678118 9 2 C9 2.99 9 3.98 9 5 C5.54074837 3.7508258 2.85306797 2.32472205 0 0 Z " fill="#09A5E3" transform="translate(674,279)"/>
<path d="M0 0 C0.99 0.33 1.98 0.66 3 1 C1.8125 2.5 1.8125 2.5 0 4 C-2.6875 4.1875 -2.6875 4.1875 -5 4 C-2.6875 1.9375 -2.6875 1.9375 0 0 Z " fill="#0A9ADC" transform="translate(487,278)"/>
<path d="M0 0 C-3.96 1.98 -3.96 1.98 -8 4 C-8.33 3.01 -8.66 2.02 -9 1 C-3.375 -1.125 -3.375 -1.125 0 0 Z " fill="#0CADEE" transform="translate(603,269)"/>
<path d="M0 0 C0 0.66 0 1.32 0 2 C-0.99 2 -1.98 2 -3 2 C-3.33 2.99 -3.66 3.98 -4 5 C-5.65 5 -7.3 5 -9 5 C-2.87096774 0 -2.87096774 0 0 0 Z " fill="#0E99D8" transform="translate(543,248)"/>
</svg>
